<mxfile host="app.diagrams.net" agent="Mozilla/5.0 (Windows NT 10.0; WOW64; x64) AppleWebKit/537.36 (KHTML, like Gecko) Chrome/125.0.6285.209 Safari/537.36" version="24.7.17">
  <diagram name="Page-1" id="zIN7jI83DuRiu9ADlbIl">
    <mxGraphModel dx="819" dy="454" grid="1" gridSize="10" guides="1" tooltips="1" connect="1" arrows="1" fold="1" page="1" pageScale="1" pageWidth="850" pageHeight="1100" math="0" shadow="0">
      <root>
        <mxCell id="0" />
        <mxCell id="1" parent="0" />
        <mxCell id="buP35VAgNNShWgp1fdff-3" value="physmem&lt;div&gt;manager&lt;/div&gt;" style="rounded=0;whiteSpace=wrap;html=1;" vertex="1" parent="1">
          <mxGeometry x="190" y="320" width="120" height="60" as="geometry" />
        </mxCell>
        <mxCell id="buP35VAgNNShWgp1fdff-5" value="vmem&lt;div&gt;manager&lt;/div&gt;" style="rounded=0;whiteSpace=wrap;html=1;" vertex="1" parent="1">
          <mxGeometry x="190" y="460" width="120" height="60" as="geometry" />
        </mxCell>
        <mxCell id="buP35VAgNNShWgp1fdff-6" value="Other code" style="ellipse;whiteSpace=wrap;html=1;" vertex="1" parent="1">
          <mxGeometry x="630" y="390" width="90" height="60" as="geometry" />
        </mxCell>
        <mxCell id="buP35VAgNNShWgp1fdff-8" value="" style="endArrow=classic;startArrow=classic;html=1;rounded=0;exitX=1.027;exitY=0.771;exitDx=0;exitDy=0;exitPerimeter=0;" edge="1" parent="1" source="buP35VAgNNShWgp1fdff-3">
          <mxGeometry width="50" height="50" relative="1" as="geometry">
            <mxPoint x="550" y="490" as="sourcePoint" />
            <mxPoint x="430" y="360" as="targetPoint" />
          </mxGeometry>
        </mxCell>
        <mxCell id="buP35VAgNNShWgp1fdff-9" value="physmem_alloc&lt;div&gt;physmem_free&lt;/div&gt;" style="edgeLabel;html=1;align=center;verticalAlign=middle;resizable=0;points=[];" vertex="1" connectable="0" parent="buP35VAgNNShWgp1fdff-8">
          <mxGeometry x="-0.0963" y="1" relative="1" as="geometry">
            <mxPoint x="13" y="-13" as="offset" />
          </mxGeometry>
        </mxCell>
        <mxCell id="buP35VAgNNShWgp1fdff-10" value="" style="endArrow=classic;startArrow=classic;html=1;rounded=0;exitX=1;exitY=0.25;exitDx=0;exitDy=0;entryX=0;entryY=0.25;entryDx=0;entryDy=0;" edge="1" parent="1" source="buP35VAgNNShWgp1fdff-5">
          <mxGeometry width="50" height="50" relative="1" as="geometry">
            <mxPoint x="313" y="400.5" as="sourcePoint" />
            <mxPoint x="410" y="439.5" as="targetPoint" />
          </mxGeometry>
        </mxCell>
        <mxCell id="buP35VAgNNShWgp1fdff-11" value="vmem_map_anyk&lt;div&gt;vmem_unmap&lt;/div&gt;" style="edgeLabel;html=1;align=center;verticalAlign=middle;resizable=0;points=[];" vertex="1" connectable="0" parent="buP35VAgNNShWgp1fdff-10">
          <mxGeometry x="-0.0963" y="1" relative="1" as="geometry">
            <mxPoint x="25" y="12" as="offset" />
          </mxGeometry>
        </mxCell>
      </root>
    </mxGraphModel>
  </diagram>
</mxfile>
